<svg xmlns="http://www.w3.org/2000/svg" xmlns:xlink="http://www.w3.org/1999/xlink" width="38" height="33.396" viewBox="0 0 38 33.396"><defs><clipPath id="clip-path"><rect id="Rectangle_1860" data-name="Rectangle 1860" width="38" height="33.396" fill="#fff"></rect></clipPath></defs><g id="icon-book" transform="translate(0 0)"><g id="Group_768" data-name="Group 768" transform="translate(0 0)" clip-path="url(#clip-path)"><path id="Path_455" data-name="Path 455" d="M38,3.044V28.129a1.43,1.43,0,0,1-1.5.827c-4.254-.021-8.508-.014-12.762,0a4.3,4.3,0,0,0-1.135.128,3.288,3.288,0,0,0-2.491,3.169A1.127,1.127,0,0,1,19,33.4a1.16,1.16,0,0,1-1.124-1.148,4.64,4.64,0,0,0-.338-1.39,3.256,3.256,0,0,0-3.17-1.912q-6.437-.006-12.873,0C.364,28.946,0,28.587,0,27.47Q0,15.58,0,3.69c0-.111,0-.223,0-.334A1.112,1.112,0,0,1,1.136,2.231c.47-.012.94,0,1.41,0H4.528c0-.361,0-.681,0-1A1.123,1.123,0,0,1,5.751,0Q11.223,0,16.695,0a3.2,3.2,0,0,1,2.07.683.321.321,0,0,0,.478-.008,3.134,3.134,0,0,1,2-.673Q26.77-.006,32.3,0a1.108,1.108,0,0,1,1.173,1.161c.008.343,0,.686,0,1.063,1.035,0,2.035.028,3.032-.01a1.4,1.4,0,0,1,1.5.826M6.772,26.719H7.2q3.6,0,7.2,0a5.5,5.5,0,0,1,2.408.5c.353.168.691.365,1.065.565.006-.128.016-.235.016-.341q0-11.948,0-23.9a1.152,1.152,0,0,0-1.312-1.323q-4.731,0-9.462,0H6.772ZM31.229,2.227h-.356q-4.731,0-9.462,0a1.145,1.145,0,0,0-1.3,1.3q0,11.966,0,23.933c0,.1.012.207.021.342.092-.051.147-.076.2-.109a5.929,5.929,0,0,1,3.471-.98c2.338.019,4.675.005,7.013.005h.414ZM2.252,26.69H4.509V4.472H2.252Zm31.236,0h2.256V4.474H33.488Z" transform="translate(0 0)" fill="#fff"></path><path id="Path_456" data-name="Path 456" d="M124.123,92.037c-.7,0-1.41.005-2.115,0a1.115,1.115,0,1,1,.015-2.223q2.133-.008,4.267,0a1.115,1.115,0,1,1-.014,2.223c-.717.006-1.435,0-2.152,0" transform="translate(-111.828 -83.13)" fill="#fff"></path><path id="Path_457" data-name="Path 457" d="M124.172,149.7c.7,0,1.41,0,2.115,0a1.115,1.115,0,1,1-.012,2.223q-2.133.008-4.267,0a1.115,1.115,0,1,1,.012-2.223c.717-.006,1.435,0,2.152,0" transform="translate(-111.827 -138.568)" fill="#fff"></path><path id="Path_458" data-name="Path 458" d="M124.15,211.808c-.7,0-1.41,0-2.115,0a1.117,1.117,0,1,1,0-2.224q2.115-.007,4.229,0a1.117,1.117,0,1,1,0,2.224c-.7,0-1.41,0-2.115,0" transform="translate(-111.829 -193.995)" fill="#fff"></path><path id="Path_459" data-name="Path 459" d="M124.131,271.686c-.7,0-1.41,0-2.115,0a1.115,1.115,0,1,1,0-2.223q2.133-.008,4.267,0a1.115,1.115,0,1,1,0,2.223c-.717.006-1.435,0-2.152,0" transform="translate(-111.827 -249.42)" fill="#fff"></path><path id="Path_460" data-name="Path 460" d="M303.788,92.037c-.7,0-1.41,0-2.115,0a1.115,1.115,0,1,1-.017-2.223q2.133-.009,4.267,0a1.117,1.117,0,1,1-.02,2.224c-.7,0-1.41,0-2.115,0" transform="translate(-278.118 -83.13)" fill="#fff"></path><path id="Path_461" data-name="Path 461" d="M303.836,149.706c.693,0,1.385,0,2.078,0a1.117,1.117,0,1,1,0,2.224q-2.115.007-4.229,0a1.117,1.117,0,1,1,0-2.224c.717,0,1.435,0,2.152,0" transform="translate(-278.119 -138.572)" fill="#fff"></path><path id="Path_462" data-name="Path 462" d="M303.788,211.8c-.7,0-1.41,0-2.115,0a1.115,1.115,0,1,1-.018-2.223q2.133-.009,4.266,0a1.117,1.117,0,1,1-.019,2.224c-.7,0-1.41,0-2.115,0" transform="translate(-278.117 -193.99)" fill="#fff"></path><path id="Path_463" data-name="Path 463" d="M303.824,271.686c-.717,0-1.435,0-2.152,0a1.115,1.115,0,1,1-.016-2.223q2.133-.009,4.267,0a1.117,1.117,0,1,1-.021,2.224c-.693,0-1.385,0-2.078,0" transform="translate(-278.117 -249.42)" fill="#fff"></path></g></g></svg>