<svg xmlns="http://www.w3.org/2000/svg" xmlns:xlink="http://www.w3.org/1999/xlink" width="32" height="32" viewBox="0 0 32 32"><defs><clipPath id="clip-path"><rect id="Rectangle_1857" data-name="Rectangle 1857" width="32" height="32" fill="#fff"></rect></clipPath></defs><g id="icon-calendar" transform="translate(0.075 0.12)"><g id="Group_762" data-name="Group 762" transform="translate(-0.075 -0.12)" clip-path="url(#clip-path)"><path id="Path_442" data-name="Path 442" d="M23.01,0H23.5c.9.381.64,1.2.688,1.918h4.465c.827,0,1.156.331,1.156,1.163q0,7.312,0,14.624a1.043,1.043,0,0,0,.224.675,7.74,7.74,0,0,1,1.5,3.482,8.1,8.1,0,0,1-2.27,7.29,8.306,8.306,0,0,1-12.677-.929.586.586,0,0,0-.531-.271c-4.936.008-9.873,0-14.809.014A1.193,1.193,0,0,1,0,27.278V2.6a1.178,1.178,0,0,1,1.247-.689c1.247.028,2.495.009,3.742.009h.632C5.67,1.2,5.414.381,6.309,0H6.8c.907.382.628,1.217.69,1.9h3.7c.046-.708-.207-1.52.687-1.9h.495c.907.382.628,1.217.69,1.9h3.7c.046-.708-.207-1.52.687-1.9h.495c.907.382.628,1.217.69,1.9h3.7c.046-.708-.207-1.52.687-1.9M15.415,20.534c-.468,0-.929.011-1.39,0a.923.923,0,0,1-.907-.847.882.882,0,0,1,.756-.976,21.022,21.022,0,0,1,2.222.011.35.35,0,0,0,.373-.157A8.311,8.311,0,0,1,27.7,16.22c.073.044.151.078.236.121V9.361H1.879V26.091H15.412l-.42-1.844c-.306,0-.6,0-.9,0a.928.928,0,1,1-.005-1.853c.307-.006.615,0,.907,0l.423-1.858m14.4,2.789a6.494,6.494,0,1,0-6.5,6.49,6.515,6.515,0,0,0,6.5-6.49M1.871,7.464H27.934V3.79H24.185c0,.282,0,.548,0,.813a.931.931,0,1,1-1.854.009c0-.274,0-.548,0-.814H18.618c0,.3,0,.581,0,.859a.928.928,0,1,1-1.853,0c-.006-.285,0-.57,0-.857H13.051c0,.288,0,.555,0,.822A.93.93,0,1,1,11.2,4.63c0-.276,0-.551,0-.838H7.484c0,.284,0,.55,0,.816a.931.931,0,1,1-1.854,0c0-.273,0-.547,0-.82H1.871Z" transform="translate(0.08 0.128)" fill="#fff"></path><path id="Path_443" data-name="Path 443" d="M92.711,183.42c-.309,0-.619.009-.927,0a.924.924,0,1,1,.006-1.848q.927-.018,1.855,0a.924.924,0,1,1-.006,1.848c-.309.01-.618,0-.927,0" transform="translate(-85.15 -170.179)" fill="#fff"></path><path id="Path_444" data-name="Path 444" d="M213.462,183.43c-.3,0-.6.007-.9,0a.925.925,0,1,1,0-1.85q.912-.016,1.824,0a.925.925,0,1,1,0,1.85c-.309.009-.618,0-.927,0" transform="translate(-198.428 -170.189)" fill="#fff"></path><path id="Path_445" data-name="Path 445" d="M333.249,181.614c.309,0,.619-.009.927,0a.924.924,0,1,1-.009,1.848q-.927.018-1.855,0a.924.924,0,1,1,.009-1.848c.309-.01.618,0,.927,0" transform="translate(-310.773 -170.227)" fill="#fff"></path><path id="Path_446" data-name="Path 446" d="M92.745,241.5c.3,0,.6-.008.9,0a.924.924,0,1,1,0,1.848q-.927.019-1.855,0a.924.924,0,1,1,0-1.848c.319-.011.639,0,.958,0" transform="translate(-85.15 -226.399)" fill="#fff"></path><path id="Path_447" data-name="Path 447" d="M213.5,241.5c.3,0,.6-.008.9,0a.924.924,0,1,1,.015,1.848c-.618.014-1.237.012-1.855,0a.925.925,0,1,1,.016-1.85c.309-.008.618,0,.927,0" transform="translate(-198.429 -226.403)" fill="#fff"></path><path id="Path_448" data-name="Path 448" d="M92.689,303.185c-.3,0-.6.008-.9,0a.924.924,0,1,1-.012-1.848c.618-.014,1.237-.012,1.855,0a.924.924,0,1,1,.012,1.848c-.319.011-.639,0-.958,0" transform="translate(-85.149 -282.522)" fill="#fff"></path><path id="Path_449" data-name="Path 449" d="M92.714,363.069c-.309,0-.619.009-.927,0a.924.924,0,1,1,0-1.848q.927-.019,1.855,0a.924.924,0,1,1,0,1.848c-.309.011-.618,0-.927,0" transform="translate(-85.15 -338.694)" fill="#fff"></path><path id="Path_450" data-name="Path 450" d="M363.1,305.158c.957,0,1.863,0,2.77,0a.89.89,0,0,1,.868.581.8.8,0,0,1-.191.965,1.176,1.176,0,0,1-.681.293c-1.225.028-2.451.02-3.677.01a.908.908,0,0,1-.941-.938q-.015-1.839,0-3.678a.925.925,0,1,1,1.85.021c.008.8,0,1.607,0,2.411v.333" transform="translate(-338.776 -282.637)" fill="#fff"></path></g></g></svg>