<svg xmlns="http://www.w3.org/2000/svg" xmlns:xlink="http://www.w3.org/1999/xlink" width="37.985" height="38" viewBox="0 0 37.985 38"><defs><clipPath id="clip-path"><rect id="Rectangle_1856" data-name="Rectangle 1856" width="37.985" height="38" fill="#fff"></rect></clipPath></defs><g id="Group_760" data-name="Group 760" clip-path="url(#clip-path)"><path id="Path_440" data-name="Path 440" d="M0,196.187a9.888,9.888,0,0,1,.725-.867c1.7-1.635,3.421-3.255,5.132-4.882.819-.779,1.272-.783,2.081-.008.035.034.074.065.135.117q.747-.75,1.491-1.5.983-.984,1.966-1.967a5.669,5.669,0,0,1,4.194-1.73c4.216.007,8.431,0,12.647.009a.676.676,0,0,0,.627-.328,9.523,9.523,0,0,1,7.745-4.123,1.11,1.11,0,0,1,1.07,1.716c-1.77,3.323-3.5,6.671-5.353,9.947a7.373,7.373,0,0,1-6.574,3.892c-3.027.073-6.057.022-9.086.013a.835.835,0,0,0-.676.285c-.293.315-.615.6-.98.956a4.013,4.013,0,0,1,.412.336,1.091,1.091,0,0,1-.015,1.593c-.336.345-.7.668-1.045,1q-2.3,2.185-4.6,4.365a5.7,5.7,0,0,1-.62.448H8.681c-.291-.238-.605-.454-.871-.718q-3.555-3.537-7.092-7.092c-.264-.266-.48-.579-.719-.871v-.594m13.648-.08c.437-.441.876-.859,1.285-1.3a1.642,1.642,0,0,1,1.312-.552c3.067.016,6.134,0,9.2.009a5.626,5.626,0,0,0,5.325-3.181q1.95-3.642,3.9-7.283c.055-.1.1-.21.177-.358-.121.03-.191.042-.258.064a7.246,7.246,0,0,0-4.25,3.589q-.8,1.524-1.6,3.049a3.335,3.335,0,0,1-3.157,1.891q-1.521,0-3.042,0c-1.435,0-2.869.006-4.3,0a1.113,1.113,0,0,1-1.16-1.271,1.129,1.129,0,0,1,1.224-.951c2.412,0,4.823.009,7.235-.014a1.286,1.286,0,0,0,.906-.294,19.068,19.068,0,0,0,1.17-1.919h-.456c-3.785,0-7.569.006-11.354,0a3.677,3.677,0,0,0-2.757,1.14c-1.04,1.059-2.1,2.1-3.146,3.15-.085.085-.164.175-.234.251l3.985,3.99m-.523,2.77-6.295-6.294L2.76,196.452l6.3,6.294,4.068-3.869" transform="translate(0.001 -167.462)" fill="#fff"></path><path id="Path_441" data-name="Path 441" d="M219.487,1.814a8.027,8.027,0,0,1,3.9-1.67,22.077,22.077,0,0,1,2.809-.115,1.061,1.061,0,0,1,1.012,1.081c.013.321,0,.642,0,.964q0,4.968,0,9.936c0,.946-.409,1.363-1.351,1.355a8.9,8.9,0,0,0-3.255.383,6.563,6.563,0,0,0-2.173,1.312c-.779.714-1.243.714-2.012.013a6.379,6.379,0,0,0-4.162-1.7c-.481-.02-.964,0-1.446-.01a1.112,1.112,0,0,1-1.182-1.188q-.007-5.487,0-10.974A1.093,1.093,0,0,1,212.661.022a10.078,10.078,0,0,1,4.724.667c.7.323,1.367.728,2.1,1.125m-1.182,10.444v-.481c0-2.324-.044-4.65.024-6.973a1.6,1.6,0,0,0-.92-1.639,6.978,6.978,0,0,0-3.532-.921v8.9a8.964,8.964,0,0,1,4.428,1.117m6.661-9.981a6.3,6.3,0,0,0-4.121,1.3.722.722,0,0,0-.321.642c.013,2.534.007,5.069.007,7.6v.432a9.06,9.06,0,0,1,4.435-1.118Z" transform="translate(-195.895 0)" fill="#fff"></path></g></svg>